<?xml version="1.0" encoding="utf-8"?>
<svg width="189" height="27" viewBox="0 0 189 27" fill="none" xmlns="http://www.w3.org/2000/svg">
  <path fill-rule="evenodd" clip-rule="evenodd" d="M32.9173 7.89849C32.9561 7.59702 32.9747 7.29317 32.9729 6.98908C32.9752 6.67547 32.9567 6.36207 32.9173 6.05107C32.7114 4.67654 32.0867 3.4048 31.1332 2.41915C30.6102 1.86636 30.0063 1.40126 29.3434 1.04074C28.9161 0.7761 28.4588 0.566708 27.9817 0.41731C26.764 0.108281 25.5114 -0.0302388 24.2577 0.00550183H23.2628L7.8777 0.0340996H0.329678C0.151635 0.0340996 0.00730255 0.182622 0.00730255 0.365834V1.33816C0.00689175 1.50964 0.135651 1.65214 0.301887 1.66417H0.513098C0.713193 1.72137 0.913287 1.72137 1.11894 1.72137C1.58198 1.73035 2.0433 1.78203 2.49737 1.8758C2.67737 1.9131 2.85015 1.98074 3.00872 2.07598C3.24421 2.28279 3.38522 2.58129 3.3978 2.8996C3.46168 3.42508 3.49139 3.95436 3.48673 4.48391V9.15679C3.48673 9.46565 3.48673 9.78022 3.48673 10.0605V10.0605C3.48673 10.3922 3.48673 10.7068 3.48673 10.9299C3.51725 11.3045 3.39894 11.676 3.1588 11.9594C2.88942 12.1007 2.58778 12.1639 2.28616 12.1424H2.175C1.9082 12.1424 1.69143 12.1424 1.46355 12.1424C1.23566 12.1424 0.907729 12.1424 0.501981 12.1824H0.29077C0.198821 12.1932 0.115584 12.2435 0.0615927 12.3208C0.00760162 12.3982 -0.0121165 12.4954 0.00730255 12.5885V13.5609C0.00955588 13.7344 0.139379 13.8779 0.307445 13.8926H0.513098C0.824356 13.9212 1.06892 13.9212 1.36906 13.9212H2.00269H2.5196H2.56407C2.88644 13.9212 3.1977 13.9498 3.35333 14.333C3.39483 14.4345 3.41746 14.5432 3.42003 14.6533V14.7334C3.42003 15.0537 3.47005 15.3797 3.47561 15.7057C3.48117 16.0317 3.47561 16.2776 3.47561 16.5579V19.6179C3.47561 19.8352 3.47561 20.0583 3.47561 20.287C3.50026 20.962 3.49098 21.6378 3.44782 22.3118C3.42155 22.813 3.2248 23.2888 2.892 23.6559C2.53226 23.9769 2.07308 24.1553 1.59694 24.1592H1.30236H1.11894H0.740984C0.585354 24.1592 0.435283 24.1592 0.29077 24.1992H0.174048C0.0239771 24.1992 0.0239771 24.3594 0.0239771 24.4166V24.4166C0.00729131 24.476 0.00163435 24.538 0.00730255 24.5996V25.6977C0.00712887 25.7706 0.0351235 25.8406 0.0851172 25.8922C0.190607 25.977 0.32496 26.0141 0.457516 25.9952H23.146C23.6463 25.9952 24.2577 25.9952 24.8135 25.9952H25.0192C25.6228 26.0005 26.2262 25.9661 26.8256 25.8922C27.2273 25.8394 27.6235 25.7495 28.0095 25.6234C28.4762 25.4628 28.9267 25.2559 29.3545 25.0057C30.0128 24.6337 30.6125 24.1613 31.1332 23.6044C32.0867 22.6187 32.7114 21.347 32.9173 19.9725C32.9561 19.671 32.9747 19.3672 32.9729 19.0631C32.9755 18.7494 32.957 18.436 32.9173 18.1251C32.6305 16.2927 31.626 14.6616 30.1382 13.6123L29.3156 13.0118L30.1382 12.4398C31.6343 11.3859 32.6402 9.74224 32.9173 7.89849ZM30.0215 15.9573C30.7488 16.8095 31.174 17.8902 31.2277 19.023V19.023C31.1835 20.1717 30.7578 21.2699 30.0215 22.1345C29.5955 22.6483 29.0858 23.0818 28.5153 23.4156C28.3494 23.509 28.1787 23.593 28.0039 23.6673C26.7033 24.2393 25.2248 24.2049 23.7797 24.1706H22.8181H6.55485C6.17208 24.1691 5.80566 24.0108 5.53657 23.7307C5.26748 23.4506 5.11788 23.0717 5.12084 22.6778V14.6704C5.12687 14.2665 5.44525 13.9414 5.83784 13.9383H12.8245C14.5309 13.9383 16.4262 13.9383 18.2604 13.9383H22.9126H23.7852C25.0018 13.8469 26.2247 13.953 27.4092 14.2529C28.4365 14.5248 29.3533 15.1257 30.0271 15.9688L30.0215 15.9573ZM28.543 11.3302V11.3302C27.2702 12.068 25.6583 12.0738 24.48 12.0738C20.7838 12.0738 17.0821 12.0738 13.9195 12.0738H5.85452C5.45239 12.0738 5.12639 11.7383 5.12639 11.3245C5.12639 9.5686 5.12639 7.89277 5.12639 6.39997V2.86528C5.12639 2.32512 5.55193 1.88724 6.07685 1.88724H14.692C15.448 1.88724 16.215 1.88724 16.9598 1.88724H16.9876C18.1826 1.88724 19.5332 1.88724 20.8283 1.88724C21.4452 1.88724 22.0678 1.88724 22.668 1.88724H22.6958C23.4517 1.88724 24.2299 1.85864 24.9969 1.88724C26.2586 1.93871 27.7038 2.05882 28.8321 2.83668C29.8802 3.53147 30.665 4.57524 31.0553 5.79369C31.1709 6.17968 31.2363 6.57971 31.2499 6.98336V7.01768C31.185 8.14703 30.7523 9.22096 30.0215 10.0662C29.6043 10.5732 29.1039 11.001 28.543 11.3302Z" style="fill: rgb(255, 255, 255);"/>
  <path d="M52.3277 12.7352C53.3319 12.7352 54.2012 12.9075 54.9357 13.2523C55.6701 13.597 56.2247 14.0617 56.5994 14.6462C56.9891 15.2308 57.184 15.8828 57.184 16.6022C57.184 17.3966 56.9816 18.1235 56.5769 18.783C56.1722 19.4425 55.5502 19.9671 54.7108 20.3568C53.8715 20.7465 52.8223 20.9414 51.5633 20.9414H43.6044V20.2669C44.2039 20.2369 44.6536 20.147 44.9533 19.9971C45.2681 19.8472 45.4854 19.5999 45.6053 19.2552C45.7252 18.9104 45.7852 18.4158 45.7852 17.7713V8.37353C45.7852 7.71403 45.7177 7.21941 45.5829 6.88966C45.4629 6.54493 45.2456 6.29762 44.9309 6.14773C44.6311 5.99785 44.1889 5.90792 43.6044 5.87794V5.20346H51.3609C52.9797 5.20346 54.2312 5.54819 55.1155 6.23766C55.9999 6.92713 56.442 7.86392 56.442 9.04801C56.442 9.69251 56.2697 10.2771 55.9249 10.8017C55.5952 11.3263 55.1155 11.7534 54.486 12.0832C53.8565 12.3979 53.1296 12.5703 52.3052 12.6003H51.5183V12.7352H52.3277ZM48.2808 6.0578V12.263H50.7314C51.7206 12.263 52.4851 12.0007 53.0246 11.4761C53.5792 10.9366 53.8565 10.1721 53.8565 9.18291C53.8565 8.0138 53.5792 7.20442 53.0246 6.75477C52.4701 6.29012 51.6382 6.0578 50.5291 6.0578H48.2808ZM51.1586 20.087C52.2827 20.087 53.1296 19.7798 53.6991 19.1652C54.2687 18.5507 54.5535 17.7039 54.5535 16.6247C54.5535 15.5305 54.2387 14.6762 53.6092 14.0617C52.9797 13.4321 52.1028 13.1174 50.9787 13.1174H48.2808V18.7156C48.2808 19.1652 48.3857 19.51 48.5955 19.7498C48.8054 19.9746 49.1651 20.087 49.6747 20.087H51.1586Z" style="fill: rgb(255, 255, 255);"/>
  <path d="M64.6579 21.2112C63.5787 21.2112 62.612 20.9639 61.7576 20.4692C60.9033 19.9596 60.2363 19.2627 59.7566 18.3783C59.277 17.494 59.0372 16.4973 59.0372 15.3881C59.0372 14.279 59.277 13.2823 59.7566 12.3979C60.2363 11.5136 60.9033 10.8241 61.7576 10.3295C62.6269 9.81991 63.5937 9.56511 64.6579 9.56511C65.7371 9.56511 66.7038 9.81991 67.5582 10.3295C68.4125 10.8241 69.0795 11.5136 69.5591 12.3979C70.0388 13.2823 70.2786 14.279 70.2786 15.3881C70.2786 16.4973 70.0388 17.494 69.5591 18.3783C69.0795 19.2627 68.4125 19.9596 67.5582 20.4692C66.7038 20.9639 65.7371 21.2112 64.6579 21.2112ZM64.6579 20.177C66.6514 20.177 67.6481 18.5807 67.6481 15.3881C67.6481 12.1956 66.6514 10.5993 64.6579 10.5993C62.6644 10.5993 61.6677 12.1956 61.6677 15.3881C61.6677 18.5807 62.6644 20.177 64.6579 20.177Z" style="fill: rgb(255, 255, 255);"/>
  <path d="M77.8314 21.2112C76.7522 21.2112 75.7854 20.9639 74.9311 20.4692C74.0768 19.9596 73.4098 19.2627 72.9301 18.3783C72.4505 17.494 72.2107 16.4973 72.2107 15.3881C72.2107 14.279 72.4505 13.2823 72.9301 12.3979C73.4098 11.5136 74.0768 10.8241 74.9311 10.3295C75.8004 9.81991 76.7672 9.56511 77.8314 9.56511C78.9105 9.56511 79.8773 9.81991 80.7316 10.3295C81.586 10.8241 82.253 11.5136 82.7326 12.3979C83.2122 13.2823 83.4521 14.279 83.4521 15.3881C83.4521 16.4973 83.2122 17.494 82.7326 18.3783C82.253 19.2627 81.586 19.9596 80.7316 20.4692C79.8773 20.9639 78.9105 21.2112 77.8314 21.2112ZM77.8314 20.177C79.8248 20.177 80.8216 18.5807 80.8216 15.3881C80.8216 12.1956 79.8248 10.5993 77.8314 10.5993C75.8379 10.5993 74.8412 12.1956 74.8412 15.3881C74.8412 18.5807 75.8379 20.177 77.8314 20.177Z" style="fill: rgb(255, 255, 255);"/>
  <path d="M84.8274 20.2894C85.352 20.2294 85.7342 20.1545 85.974 20.0646C86.2288 19.9596 86.4012 19.8098 86.4911 19.6149C86.596 19.4201 86.6485 19.1203 86.6485 18.7156V6.46249C86.6485 6.01284 86.581 5.70557 86.4461 5.5407C86.3112 5.37583 86.0564 5.29339 85.6817 5.29339C85.4419 5.29339 85.1721 5.31587 84.8723 5.36084V4.7538L88.2672 3.85449H88.9192V18.7156C88.9192 19.1203 88.9642 19.4201 89.0541 19.6149C89.1441 19.8098 89.2864 19.9596 89.4813 20.0646C89.6761 20.1545 89.9759 20.2294 90.3806 20.2894V20.9414H84.8274V20.2894ZM89.2565 15.1184L92.539 12.4879C92.8987 12.1731 93.1535 11.9183 93.3034 11.7235C93.4682 11.5286 93.5507 11.3263 93.5507 11.1164C93.5507 10.8766 93.4607 10.7192 93.2809 10.6443C93.101 10.5544 92.8013 10.5094 92.3816 10.5094V9.8349H97.0355V10.5094C96.5559 10.5693 96.1062 10.7267 95.6865 10.9815C95.2818 11.2213 94.8172 11.5586 94.2926 11.9932L91.6396 14.1741L91.6621 14.2865L95.3943 18.6032C95.8139 19.0978 96.1812 19.4725 96.4959 19.7273C96.8257 19.9821 97.2304 20.1695 97.71 20.2894V20.9414H94.2027L89.2565 15.1184Z" style="fill: rgb(255, 255, 255);"/>
  <path d="M102.423 21.2112C101.763 21.2112 101.111 21.1212 100.467 20.9414C99.8221 20.7615 99.2375 20.4692 98.7129 20.0646V17.3217H99.5448C99.7546 18.2509 100.152 18.9554 100.736 19.435C101.321 19.9147 102.01 20.1545 102.805 20.1545C103.434 20.1545 103.936 20.0046 104.311 19.7048C104.701 19.4051 104.896 18.9929 104.896 18.4683C104.896 18.0336 104.783 17.6814 104.558 17.4116C104.334 17.1418 103.966 16.9245 103.457 16.7596L101.388 16.0401C100.549 15.7703 99.9045 15.3732 99.4549 14.8486C99.0052 14.309 98.7804 13.672 98.7804 12.9375C98.7804 11.9183 99.1701 11.1014 99.9495 10.4869C100.729 9.87237 101.733 9.56511 102.962 9.56511C103.517 9.56511 104.094 9.64005 104.693 9.78994C105.308 9.92483 105.832 10.0897 106.267 10.2846V12.8026H105.458C105.293 12.1431 104.956 11.6035 104.446 11.1839C103.951 10.7642 103.337 10.5544 102.602 10.5544C102.018 10.5544 101.546 10.6892 101.186 10.959C100.841 11.2288 100.669 11.5811 100.669 12.0157C100.669 12.4354 100.774 12.7876 100.984 13.0724C101.209 13.3422 101.561 13.567 102.04 13.7469L104.424 14.6012C105.982 15.1708 106.762 16.19 106.762 17.6589C106.762 18.7381 106.365 19.5999 105.57 20.2444C104.776 20.8889 103.727 21.2112 102.423 21.2112Z" style="fill: rgb(255, 255, 255);"/>
  <path d="M108.166 20.2894C108.676 20.2294 109.058 20.1545 109.313 20.0646C109.568 19.9746 109.74 19.8322 109.83 19.6374C109.935 19.4275 109.987 19.1203 109.987 18.7156V6.46249C109.987 5.99785 109.92 5.69058 109.785 5.5407C109.65 5.37583 109.38 5.29339 108.976 5.29339C108.766 5.29339 108.511 5.31587 108.211 5.36084V4.7538L111.606 3.85449H112.258V9.27283C112.258 9.97729 112.221 10.5768 112.146 11.0715C112.086 11.5511 111.981 12.0307 111.831 12.5104L111.943 12.5553C112.243 11.611 112.73 10.8766 113.405 10.352C114.094 9.82741 114.926 9.56511 115.9 9.56511C116.965 9.56511 117.804 9.87987 118.419 10.5094C119.048 11.1389 119.363 12.1207 119.363 13.4546V18.6931C119.363 19.1128 119.415 19.4275 119.52 19.6374C119.625 19.8322 119.797 19.9746 120.037 20.0646C120.292 20.1545 120.674 20.2294 121.184 20.2894V20.9414H115.676V20.2894C116.23 20.1845 116.605 20.0421 116.8 19.8622C116.995 19.6674 117.092 19.3601 117.092 18.9404V13.7919C117.092 12.9375 116.89 12.3005 116.485 11.8808C116.08 11.4462 115.533 11.2288 114.844 11.2288C114.199 11.2288 113.667 11.3637 113.247 11.6335C112.843 11.8883 112.513 12.278 112.258 12.8026V18.7156C112.258 19.1203 112.303 19.4201 112.393 19.6149C112.483 19.8098 112.625 19.9596 112.82 20.0646C113.015 20.1545 113.315 20.2294 113.72 20.2894V20.9414H108.166V20.2894Z" style="fill: rgb(255, 255, 255);"/>
  <path d="M127.956 21.2112C126.877 21.2112 125.911 20.9639 125.056 20.4692C124.202 19.9596 123.535 19.2627 123.055 18.3783C122.576 17.494 122.336 16.4973 122.336 15.3881C122.336 14.279 122.576 13.2823 123.055 12.3979C123.535 11.5136 124.202 10.8241 125.056 10.3295C125.926 9.81991 126.892 9.56511 127.956 9.56511C129.036 9.56511 130.002 9.81991 130.857 10.3295C131.711 10.8241 132.378 11.5136 132.858 12.3979C133.337 13.2823 133.577 14.279 133.577 15.3881C133.577 16.4973 133.337 17.494 132.858 18.3783C132.378 19.2627 131.711 19.9596 130.857 20.4692C130.002 20.9639 129.036 21.2112 127.956 21.2112ZM127.956 20.177C129.95 20.177 130.947 18.5807 130.947 15.3881C130.947 12.1956 129.95 10.5993 127.956 10.5993C125.963 10.5993 124.966 12.1956 124.966 15.3881C124.966 18.5807 125.963 20.177 127.956 20.177Z" style="fill: rgb(255, 255, 255);"/>
  <path d="M134.907 25.348C135.417 25.288 135.799 25.2131 136.054 25.1232C136.308 25.0332 136.481 24.8834 136.571 24.6735C136.676 24.4787 136.728 24.1789 136.728 23.7742V12.4429C136.728 12.0832 136.646 11.8284 136.481 11.6785C136.331 11.5136 136.076 11.4312 135.716 11.4312C135.537 11.4312 135.222 11.4462 134.772 11.4761V10.8241L138.077 9.8349H138.752V11.1164C138.752 11.4162 138.684 11.8808 138.549 12.5104L138.662 12.5328C138.961 11.6185 139.449 10.8991 140.123 10.3745C140.812 9.8349 141.607 9.56511 142.506 9.56511C143.375 9.56511 144.132 9.77495 144.777 10.1946C145.436 10.6143 145.946 11.2138 146.306 11.9932C146.665 12.7727 146.845 13.6795 146.845 14.7137C146.845 15.9727 146.598 17.0968 146.103 18.0861C145.624 19.0753 144.957 19.8472 144.102 20.4018C143.248 20.9414 142.289 21.2112 141.225 21.2112C140.385 21.2112 139.643 21.0163 138.999 20.6266V23.7517C138.999 24.1864 139.066 24.5012 139.201 24.696C139.336 24.9058 139.561 25.0557 139.876 25.1457C140.19 25.2356 140.67 25.303 141.315 25.348V26H134.907V25.348ZM141.225 20.2669C142.199 20.2669 142.978 19.8472 143.563 19.0079C144.147 18.1535 144.44 16.9994 144.44 15.5455C144.44 14.2265 144.185 13.2148 143.675 12.5104C143.181 11.7909 142.454 11.4312 141.494 11.4312C140.94 11.4312 140.438 11.5511 139.988 11.7909C139.553 12.0307 139.224 12.353 138.999 12.7577V19.2777C139.329 19.6224 139.666 19.8772 140.011 20.0421C140.37 20.192 140.775 20.2669 141.225 20.2669Z" style="fill: rgb(255, 255, 255);"/>
  <path fill-rule="evenodd" clip-rule="evenodd" d="M158.835 21.3315C157.746 21.3315 156.772 21.0709 155.914 20.5495C155.055 20.0282 154.388 19.3229 153.913 18.4335C153.437 17.5289 153.2 16.5245 153.2 15.4205C153.2 14.3165 153.437 13.3199 153.913 12.4305C154.388 11.5259 155.055 10.8129 155.914 10.2915C156.772 9.77019 157.746 9.50952 158.835 9.50952C159.923 9.50952 160.897 9.77019 161.756 10.2915C162.614 10.8129 163.281 11.5259 163.757 12.4305C164.232 13.3199 164.47 14.3165 164.47 15.4205C164.47 16.5245 164.232 17.5289 163.757 18.4335C163.281 19.3229 162.614 20.0282 161.756 20.5495C160.897 21.0709 159.923 21.3315 158.835 21.3315ZM158.835 20.3195C161.027 20.3195 162.124 18.6865 162.124 15.4205C162.124 12.1545 161.027 10.5215 158.835 10.5215C156.642 10.5215 155.546 12.1545 155.546 15.4205C155.546 18.6865 156.642 20.3195 158.835 20.3195ZM173.263 9.50952C173.57 9.50952 173.807 9.54019 173.976 9.60152V11.9015H173.608C173.363 11.7635 173.041 11.6945 172.642 11.6945C171.921 11.6945 171.316 11.9092 170.825 12.3385C170.35 12.7679 170.112 13.4425 170.112 14.3625V18.8475C170.112 19.2769 170.181 19.5989 170.319 19.8135C170.457 20.0282 170.687 20.1815 171.009 20.2735C171.331 20.3655 171.822 20.4345 172.481 20.4805V21.0555H166.248V20.4805C166.8 20.4192 167.199 20.3425 167.444 20.2505C167.705 20.1585 167.889 20.0129 167.996 19.8135C168.103 19.5989 168.157 19.2769 168.157 18.8475V12.2695C168.157 11.8862 168.073 11.6179 167.904 11.4645C167.751 11.2959 167.475 11.2115 167.076 11.2115L166.087 11.2575V10.6825L169.33 9.78552H169.859V11.4645C169.859 12.4765 169.844 13.3199 169.813 13.9945H169.951L170.135 12.7985C170.304 11.6945 170.687 10.8742 171.285 10.3375C171.898 9.78552 172.558 9.50952 173.263 9.50952ZM183.146 10.4985C183.882 10.7899 184.58 10.9355 185.239 10.9355H186.159V9.78552H182.088C181.536 9.60152 180.93 9.50952 180.271 9.50952C179.397 9.50952 178.607 9.67052 177.902 9.99252C177.212 10.3145 176.668 10.7745 176.269 11.3725C175.886 11.9552 175.694 12.6299 175.694 13.3965C175.694 14.1019 175.863 14.7382 176.2 15.3055C176.537 15.8575 177.013 16.3022 177.626 16.6395V16.8005C177.013 17.0152 176.545 17.3219 176.223 17.7205C175.916 18.1192 175.763 18.5409 175.763 18.9855C175.763 19.5069 175.924 19.9592 176.246 20.3425C176.568 20.7259 176.997 20.9942 177.534 21.1475V21.2855C176.645 21.5309 176.016 21.8529 175.648 22.2515C175.295 22.6655 175.119 23.1715 175.119 23.7695C175.119 24.2909 175.311 24.7585 175.694 25.1725C176.093 25.5865 176.652 25.9085 177.373 26.1385C178.109 26.3839 178.975 26.5065 179.972 26.5065C181.398 26.5065 182.571 26.2995 183.491 25.8855C184.426 25.4715 185.101 24.9425 185.515 24.2985C185.944 23.6545 186.159 22.9722 186.159 22.2515C186.159 21.3469 185.86 20.6875 185.262 20.2735C184.679 19.8595 183.828 19.6142 182.709 19.5375L178.96 19.3075C178.439 19.2769 178.025 19.1619 177.718 18.9625C177.427 18.7632 177.281 18.5025 177.281 18.1805C177.281 17.8892 177.388 17.6362 177.603 17.4215C177.818 17.2069 178.163 17.0765 178.638 17.0305C179.113 17.1839 179.658 17.2605 180.271 17.2605C181.145 17.2605 181.927 17.0995 182.617 16.7775C183.322 16.4555 183.867 16.0032 184.25 15.4205C184.649 14.8379 184.848 14.1632 184.848 13.3965C184.848 11.9092 184.258 10.9892 183.077 10.6365L183.146 10.4985ZM182.088 15.6965C181.628 16.2025 181.022 16.4555 180.271 16.4555C179.52 16.4555 178.914 16.2025 178.454 15.6965C177.994 15.1905 177.764 14.4239 177.764 13.3965C177.764 12.3692 177.994 11.6025 178.454 11.0965C178.914 10.5752 179.52 10.3145 180.271 10.3145C181.038 10.3145 181.643 10.5752 182.088 11.0965C182.548 11.6179 182.778 12.3845 182.778 13.3965C182.778 14.4239 182.548 15.1905 182.088 15.6965ZM177.005 23.1025C177.005 22.2285 177.457 21.6152 178.362 21.2625L182.065 21.4465C182.924 21.4925 183.591 21.6535 184.066 21.9295C184.557 22.2055 184.802 22.6579 184.802 23.2865C184.802 23.9459 184.48 24.4672 183.836 24.8505C183.192 25.2339 182.303 25.4255 181.168 25.4255C179.849 25.4255 178.822 25.2185 178.086 24.8045C177.365 24.3905 177.005 23.8232 177.005 23.1025ZM149.043 20.5245C149.312 20.7934 149.638 20.9279 150.023 20.9279C150.407 20.9279 150.733 20.7934 151.002 20.5245C151.271 20.2556 151.405 19.9291 151.405 19.5449C151.405 19.1608 151.271 18.8343 151.002 18.5653C150.733 18.2964 150.407 18.162 150.023 18.162C149.638 18.162 149.312 18.2964 149.043 18.5653C148.774 18.8343 148.64 19.1608 148.64 19.5449C148.64 19.9291 148.774 20.2556 149.043 20.5245Z" style="fill: rgb(255, 255, 255);"/>
</svg>